<svg xmlns="http://www.w3.org/2000/svg" viewBox="0 0 1200 720" role="img" aria-labelledby="title desc">
  <title id="title">Highveld client portal illustration</title>
  <desc id="desc">A light blue abstract client portal dashboard with document and message cards.</desc>
  <rect width="1200" height="720" fill="#eff8ff"/>
  <rect x="56" y="54" width="1088" height="612" fill="#ffffff" stroke="#bfe2ff" stroke-width="2"/>
  <rect x="56" y="54" width="1088" height="76" fill="#dbeeff"/>
  <rect x="88" y="78" width="164" height="28" fill="#3b9ae8"/>
  <rect x="920" y="76" width="160" height="32" fill="#ffffff" stroke="#93d0ff" stroke-width="2"/>
  <rect x="92" y="180" width="306" height="432" fill="#152e49"/>
  <rect x="126" y="222" width="152" height="18" fill="#93d0ff"/>
  <rect x="126" y="258" width="214" height="11" fill="#dbeeff" opacity="0.9"/>
  <rect x="126" y="282" width="176" height="11" fill="#dbeeff" opacity="0.65"/>
  <rect x="126" y="338" width="238" height="74" fill="#205486"/>
  <rect x="146" y="358" width="96" height="10" fill="#93d0ff"/>
  <rect x="146" y="382" width="164" height="8" fill="#dbeeff" opacity="0.7"/>
  <rect x="126" y="432" width="238" height="74" fill="#205486"/>
  <rect x="146" y="452" width="108" height="10" fill="#93d0ff"/>
  <rect x="146" y="476" width="140" height="8" fill="#dbeeff" opacity="0.7"/>
  <rect x="126" y="526" width="238" height="44" fill="#60b4fa"/>
  <rect x="446" y="180" width="646" height="122" fill="#ffffff" stroke="#dbe4ee" stroke-width="2"/>
  <rect x="480" y="214" width="168" height="14" fill="#1f476f"/>
  <rect x="480" y="246" width="264" height="10" fill="#94a3b8"/>
  <rect x="866" y="214" width="178" height="42" fill="#dbeeff"/>
  <rect x="446" y="330" width="308" height="282" fill="#ffffff" stroke="#dbe4ee" stroke-width="2"/>
  <rect x="480" y="364" width="102" height="12" fill="#1f476f"/>
  <rect x="480" y="410" width="238" height="2" fill="#e2e8f0"/>
  <rect x="480" y="442" width="176" height="12" fill="#64748b"/>
  <rect x="480" y="470" width="116" height="9" fill="#cbd5e1"/>
  <rect x="480" y="508" width="176" height="12" fill="#64748b"/>
  <rect x="480" y="536" width="144" height="9" fill="#cbd5e1"/>
  <rect x="784" y="330" width="308" height="282" fill="#ffffff" stroke="#dbe4ee" stroke-width="2"/>
  <rect x="818" y="364" width="112" height="12" fill="#1f476f"/>
  <circle cx="848" cy="436" r="24" fill="#60b4fa"/>
  <rect x="890" y="420" width="158" height="10" fill="#64748b"/>
  <rect x="890" y="444" width="112" height="8" fill="#cbd5e1"/>
  <circle cx="848" cy="512" r="24" fill="#dbeeff"/>
  <rect x="890" y="496" width="136" height="10" fill="#64748b"/>
  <rect x="890" y="520" width="96" height="8" fill="#cbd5e1"/>
</svg>
